<svg width="152" height="124" viewBox="0 0 152 124" fill="none" xmlns="http://www.w3.org/2000/svg">
    <path d="M59.6724 68.9519C60.2241 59.0567 65.0438 50.3388 72.3149 44.1589C79.4455 38.0889 89.0433 34.3789 99.5154 34.3789C109.977 34.3789 119.575 38.0889 126.711 44.1589C133.977 50.3388 138.796 59.0568 139.353 68.9415C139.905 79.1088 135.84 88.5539 128.709 95.5554C121.438 102.677 111.096 107.146 99.5154 107.146C87.9346 107.146 77.5718 102.677 70.3058 95.5554C63.17 88.5539 59.1154 79.1087 59.6724 68.9519Z" fill="white"/>
    <path d="M79.0422 69.847C79.3253 64.7697 81.7983 60.2966 85.5291 57.1256C89.1879 54.011 94.1126 52.1074 99.4859 52.1074C104.854 52.1074 109.779 54.011 113.44 57.1256C117.168 60.2966 119.641 64.7698 119.927 69.8417C120.21 75.0586 118.124 79.905 114.465 83.4974C110.735 87.1517 105.428 89.4446 99.4859 89.4446C93.5437 89.4446 88.2265 87.1517 84.4983 83.4974C80.8368 79.905 78.7564 75.0585 79.0422 69.847Z" fill="#265787"/>
    <path d="M46.4874 80.13C46.5222 82.1169 47.1524 85.9779 48.0978 88.9931C50.0848 95.3753 53.4551 101.28 58.1447 106.483C62.9572 111.831 68.8834 116.127 75.7282 119.178C82.9229 122.381 90.7184 124.013 98.8158 124C106.9 123.989 114.695 122.324 121.89 119.097C128.735 116.017 134.656 111.703 139.46 106.351C144.147 101.127 147.512 95.2115 149.504 88.8294C150.506 85.6047 151.139 82.3317 151.393 79.048C151.641 75.8126 151.537 72.5718 151.08 69.3337C150.188 63.0241 148.017 57.1037 144.673 51.7069C141.615 46.7478 137.674 42.4062 132.987 38.752L132.997 38.7439L85.6976 2.23093C85.6549 2.19871 85.6202 2.16386 85.5748 2.13432C82.4715 -0.260671 77.2531 -0.252603 73.8401 2.14776C70.3896 4.57497 69.9943 8.58895 73.0656 11.1209L73.0522 11.1343L92.7802 27.263L32.6509 27.3274H32.5708C27.6007 27.3328 22.823 30.6111 21.8776 34.754C20.9055 38.9748 24.2811 42.476 29.4488 42.4948L29.4408 42.5136L59.918 42.4545L5.53326 84.4233C5.46382 84.4743 5.38904 84.528 5.32494 84.579C0.194655 88.5286 -1.46377 95.096 1.7677 99.2524C5.04723 103.479 12.0203 103.487 17.204 99.2766L46.8854 74.854C46.8854 74.854 46.4527 78.1512 46.4874 80.13ZM122.758 91.1706C116.642 97.4346 108.08 100.987 98.8158 101.006C89.538 101.022 80.976 97.5018 74.8602 91.2485C71.8718 88.2011 69.6765 84.6945 68.3225 80.9597C66.9952 77.2893 66.4798 73.3934 66.8216 69.4626C67.1448 65.6204 68.2825 61.9554 70.0985 58.6395C71.8825 55.3799 74.3395 52.4346 77.3733 49.9429C83.3181 45.0724 90.8867 42.4357 98.8025 42.4249C106.726 42.4142 114.289 45.0267 120.24 49.8811C123.268 52.362 125.722 55.2967 127.506 58.5509C129.33 61.8642 130.46 65.5157 130.797 69.3686C131.133 73.2941 130.618 77.1846 129.29 80.8577C127.934 84.6032 125.746 88.1097 122.758 91.1706Z" fill="#EA7600"/>
</svg>
