<svg width="104" height="156" viewBox="0 0 104 156" fill="none" xmlns="http://www.w3.org/2000/svg">
    <path d="M52.3447 77.5947C52.3447 63.3359 63.9039 51.7764 78.1631 51.7764C92.4219 51.7764 103.981 63.3359 103.981 77.5947C103.981 91.8539 92.4219 103.413 78.1631 103.413C63.9039 103.413 52.3447 91.8539 52.3447 77.5947Z" fill="#1ABCFE"/>
    <path d="M0.707031 129.232C0.707031 114.974 12.2663 103.414 26.5254 103.414H52.3437V129.232C52.3437 143.492 40.7846 155.051 26.5254 155.051C12.2663 155.051 0.707031 143.492 0.707031 129.232Z" fill="#0ACF83"/>
    <path d="M52.3447 0.138672V51.7752H78.1631C92.4223 51.7752 103.981 40.216 103.981 25.957C103.981 11.6979 92.4223 0.138672 78.1631 0.138672H52.3447Z" fill="#FF7262"/>
    <path d="M0.707031 25.957C0.707031 40.2161 12.2663 51.7752 26.5254 51.7752H52.3437V0.138672H26.5254C12.2663 0.138672 0.707031 11.6979 0.707031 25.957Z" fill="#F24E1E"/>
    <path d="M0.707031 77.5947C0.707031 91.8539 12.2663 103.413 26.5254 103.413H52.3437V51.7764H26.5254C12.2663 51.7764 0.707031 63.3359 0.707031 77.5947Z" fill="#A259FF"/>
</svg>
