<svg width="114" height="157" viewBox="0 0 114 157" fill="none" xmlns="http://www.w3.org/2000/svg">
    <mask id="mask0_345_148" style="mask-type:luminance" maskUnits="userSpaceOnUse" x="0" y="0" width="114" height="157">
        <path d="M98.9427 35.4107C98.5879 33.459 96.8136 32.2171 94.862 32.4832C94.1523 32.5719 93.4426 32.9268 92.9103 33.459L74.4582 51.9111L59.9981 24.3217C59.111 22.5475 56.9819 21.9265 55.2077 22.8136C54.5867 23.1684 54.0544 23.7007 53.6996 24.3217L45.8042 39.4027L25.9327 2.32111C25.0456 0.635577 22.8278 -0.0741186 21.1423 0.901714C20.1664 1.43399 19.4567 2.40982 19.2793 3.47436L0.0288086 126.429L51.3931 155.261C54.5867 157.035 58.5787 157.035 61.7724 155.261L113.58 126.429L98.9427 35.4107Z" fill="white"/>
    </mask>
    <g mask="url(#mask0_345_148)">
        <path d="M0.0288086 126.43L19.2793 3.47507C19.5455 1.52341 21.4084 0.192723 23.3601 0.547571C24.4246 0.724995 25.4004 1.43469 25.9327 2.41052L45.8042 39.4922L53.6996 24.4111C54.5867 22.6369 56.7158 22.0159 58.49 22.903C59.111 23.2579 59.6433 23.7901 59.9981 24.4111L113.58 126.43H0.0288086Z" fill="#FFA000"/>
        <path opacity="0.12" d="M65.6778 1.34713L-28.3569 -6.63696V163.69L0.0309296 126.431L65.6778 1.34713Z" fill="url(#paint0_linear_345_148)"/>
        <path d="M66.4741 78.5268L45.8042 39.4048L0.0288086 126.431L66.4741 78.5268Z" fill="#F57C00"/>
        <path opacity="0.2" d="M-28.3569 -6.63696H141.97V163.69H-28.3569V-6.63696Z" fill="url(#paint1_linear_345_148)"/>
        <path d="M113.58 126.428L98.854 35.3212C98.4991 33.3695 96.7249 32.1276 94.7732 32.3937C94.0636 32.4824 93.3538 32.8373 92.8216 33.3695L0.0288086 126.428L51.3931 155.26C54.5867 157.034 58.5787 157.034 61.7724 155.26L113.58 126.428Z" fill="#FFCA28"/>
        <path d="M98.9431 35.411C98.5882 33.4593 96.814 32.2173 94.8623 32.4835C94.1526 32.5722 93.4429 32.927 92.9107 33.4593L74.4585 51.9114L59.9985 24.322C59.1114 22.5477 56.9823 21.9267 55.208 22.8138C54.5871 23.1687 54.0548 23.701 53.6999 24.322L45.8046 39.403L25.9331 2.32135C25.0459 0.635821 22.8281 -0.0738747 21.1426 0.901958C20.1668 1.43423 19.4571 2.41007 19.2797 3.47461L0.0291471 126.43H-0.0595703L0.0291471 126.518L0.561418 126.784L74.4585 52.7985L92.9107 34.3464C94.3301 32.927 96.5479 32.927 97.9672 34.3464C98.4995 34.8787 98.8544 35.4997 98.9431 36.2981L113.492 126.518L113.669 126.43L98.9431 35.411ZM0.206569 126.252L19.2797 4.36173C19.5458 2.41007 21.4087 1.07938 23.3604 1.43423C24.425 1.61165 25.4008 2.32135 25.9331 3.29718L45.8046 40.3788L53.6999 25.2978C54.5871 23.5235 56.7161 22.9026 58.4904 23.7897C59.1114 24.1445 59.6436 24.6768 59.9985 25.2978L74.1924 52.2663L0.206569 126.252Z" fill="white" fill-opacity="0.2"/>
        <path opacity="0.2" d="M61.7724 154.371C58.5787 156.145 54.5867 156.145 51.3931 154.371L0.117519 125.628L0.0288086 126.427L51.3931 155.258C54.5867 157.032 58.5787 157.032 61.7724 155.258L113.58 126.427L113.491 125.628L61.7724 154.371Z" fill="#A52714"/>
        <path d="M98.9427 35.4109C98.5879 33.4593 96.8136 32.2173 94.862 32.4835C94.1523 32.5722 93.4426 32.927 92.9103 33.4593L74.4582 51.9114L59.9981 24.3219C59.111 22.5477 56.9819 21.9267 55.2077 22.8138C54.5867 23.1687 54.0544 23.701 53.6996 24.3219L45.8042 39.403L25.9327 2.32135C25.0456 0.635821 22.8278 -0.0738744 21.1423 0.901958C20.1664 1.43423 19.4567 2.41006 19.2793 3.47461L0.0288086 126.43L51.3931 155.261C54.5867 157.035 58.5787 157.035 61.7724 155.261L113.58 126.43L98.9427 35.4109Z" fill="url(#paint2_linear_345_148)"/>
    </g>
    <defs>
        <linearGradient id="paint0_linear_345_148" x1="22.1574" y1="84.3419" x2="15.0604" y2="80.6337" gradientUnits="userSpaceOnUse">
            <stop stop-color="#A52714"/>
            <stop offset="0.4" stop-color="#A52714" stop-opacity="0.5"/>
            <stop offset="0.8" stop-color="#A52714" stop-opacity="0"/>
        </linearGradient>
        <linearGradient id="paint1_linear_345_148" x1="52.3187" y1="74.0173" x2="49.1428" y2="70.8414" gradientUnits="userSpaceOnUse">
            <stop stop-color="#A52714" stop-opacity="0.8"/>
            <stop offset="0.5" stop-color="#A52714" stop-opacity="0.21"/>
            <stop offset="1" stop-color="#A52714" stop-opacity="0"/>
        </linearGradient>
        <linearGradient id="paint2_linear_345_148" x1="-3.02842" y1="27.9348" x2="115.568" y2="146.531" gradientUnits="userSpaceOnUse">
            <stop stop-color="white" stop-opacity="0.1"/>
            <stop offset="1" stop-color="white" stop-opacity="0"/>
        </linearGradient>
    </defs>
</svg>
