<svg width="32" height="30" viewBox="0 0 32 30" fill="none" xmlns="http://www.w3.org/2000/svg">
    <path d="M16.2743 0C7.7814 0 0.894531 6.88559 0.894531 15.3798C0.894531 22.1749 5.3013 27.9399 11.4121 29.9736C12.1808 30.1159 12.463 29.6399 12.463 29.2337C12.463 28.867 12.4487 27.6554 12.4421 26.3703C8.16342 27.3007 7.26057 24.5557 7.26057 24.5557C6.56096 22.778 5.55293 22.3053 5.55293 22.3053C4.15752 21.3508 5.65811 21.3704 5.65811 21.3704C7.2025 21.4789 8.0157 22.9553 8.0157 22.9553C9.38742 25.3065 11.6136 24.6268 12.4912 24.2338C12.6293 23.2398 13.0279 22.5613 13.4677 22.1772C10.0516 21.7883 6.46061 20.4696 6.46061 14.5765C6.46061 12.8974 7.06141 11.5254 8.04525 10.4483C7.88556 10.061 7.35913 8.49671 8.19424 6.37826C8.19424 6.37826 9.48573 5.96492 12.4248 7.95475C13.6516 7.61398 14.9673 7.44309 16.2743 7.43723C17.5813 7.44309 18.898 7.61398 20.1271 7.95475C23.0626 5.96492 24.3523 6.37826 24.3523 6.37826C25.1894 8.49671 24.6628 10.061 24.5031 10.4483C25.4892 11.5254 26.0859 12.8974 26.0859 14.5765C26.0859 20.4836 22.488 21.7843 19.0633 22.165C19.615 22.6423 20.1065 23.5782 20.1065 25.0131C20.1065 27.071 20.0887 28.7272 20.0887 29.2337C20.0887 29.643 20.3655 30.1226 21.1451 29.9715C27.2526 27.9356 31.6538 22.1726 31.6538 15.3798C31.6538 6.88559 24.7679 0 16.2743 0ZM6.65475 21.9088C6.62088 21.9852 6.50067 22.0081 6.39115 21.9557C6.2796 21.9055 6.21695 21.8013 6.25312 21.7247C6.28623 21.646 6.40669 21.6241 6.51799 21.6768C6.62979 21.7269 6.69346 21.8321 6.65475 21.9088ZM7.41126 22.5838C7.33792 22.6518 7.19453 22.6202 7.09724 22.5128C6.99664 22.4055 6.9778 22.2622 7.05216 22.1931C7.1278 22.1251 7.26686 22.157 7.36771 22.2642C7.46831 22.3727 7.48792 22.5151 7.41126 22.5838ZM7.93026 23.4475C7.83603 23.5129 7.68195 23.4516 7.58669 23.3148C7.49246 23.178 7.49246 23.014 7.58873 22.9483C7.68424 22.8826 7.83603 22.9417 7.93255 23.0774C8.02653 23.2165 8.02653 23.3805 7.93026 23.4475ZM8.808 24.4477C8.7237 24.5407 8.54414 24.5157 8.41273 24.3889C8.27826 24.2649 8.24082 24.0889 8.32537 23.9959C8.41069 23.9027 8.59126 23.929 8.7237 24.0548C8.85715 24.1785 8.8979 24.3558 8.808 24.4477ZM9.94238 24.7854C9.9052 24.9059 9.73227 24.9606 9.55807 24.9095C9.38412 24.8567 9.27028 24.7156 9.30542 24.5939C9.34159 24.4727 9.51528 24.4156 9.69076 24.4704C9.86445 24.5228 9.97855 24.6629 9.94238 24.7854ZM11.2334 24.9287C11.2377 25.0555 11.09 25.1607 10.9071 25.163C10.7232 25.167 10.5745 25.0644 10.5725 24.9396C10.5725 24.8115 10.7169 24.7073 10.9007 24.7043C11.0836 24.7007 11.2334 24.8026 11.2334 24.9287ZM12.5016 24.88C12.5235 25.0038 12.3964 25.1309 12.2148 25.1648C12.0363 25.1974 11.871 25.121 11.8483 24.9982C11.8262 24.8714 11.9556 24.7443 12.1338 24.7114C12.3157 24.6799 12.4784 24.7542 12.5016 24.88Z" fill="white"/>
</svg>
