<svg width="140" height="113" viewBox="0 0 140 113" fill="none" xmlns="http://www.w3.org/2000/svg">
    <path d="M122.001 40.3312C119.176 30.2446 113.504 21.3634 105.891 14.5742L89.0443 31.4207C95.1886 36.4219 99.3324 43.7826 100.087 52.1142V57.6393C100.182 57.6393 100.27 57.61 100.366 57.61C108.873 57.61 115.798 64.5347 115.798 73.0422C115.798 81.5497 108.873 88.4781 100.366 88.4781C100.27 88.4781 100.182 88.4524 100.087 88.4488V88.4781H75.6638H69.9995V112.293H100.087V112.279C100.182 112.279 100.27 112.293 100.366 112.293C122.008 112.293 139.613 94.6847 139.613 73.0459C139.613 59.398 132.6 47.3658 122.001 40.3312Z" fill="#1976D2"/>
    <path opacity="0.5" d="M53.7315 66.825L71.0249 49.5315C71.0103 49.5132 70.9956 49.4985 70.9846 49.4839L53.7021 66.7663C53.7095 66.7847 53.7205 66.803 53.7315 66.825Z" fill="#FFE082"/>
    <path opacity="0.5" d="M53.7315 66.825L71.0249 49.5315C71.0103 49.5132 70.9956 49.4985 70.9846 49.4839L53.7021 66.7663C53.7095 66.7847 53.7205 66.803 53.7315 66.825Z" fill="#90CAF9"/>
    <path d="M69.9991 0.82373C40.2008 0.82373 15.957 25.0675 15.957 54.8658C15.957 55.7194 16.045 56.5511 16.0853 57.3938H39.9004C39.8308 56.5585 39.7722 55.7194 39.7722 54.8658C39.7722 38.1988 53.3321 24.6389 69.9991 24.6389C77.2132 24.6389 83.8412 27.1889 89.0438 31.4207L105.89 14.5742C96.3349 6.05207 83.7789 0.82373 69.9991 0.82373Z" fill="#FF3D00"/>
    <path opacity="0.5" d="M39.6329 88.4784H39.6256C37.3869 88.4784 35.2729 87.9765 33.353 87.1118L16.0962 104.369C22.6655 109.319 30.7993 112.294 39.6256 112.294H39.6329H69.999V88.4784H39.6329Z" fill="#90CAF9"/>
    <path d="M39.6329 88.4784H39.6256C37.3869 88.4784 35.2729 87.9765 33.353 87.1118L16.0962 104.369C22.6655 109.319 30.7993 112.294 39.6256 112.294H39.6329H69.999V88.4784H39.6329Z" fill="#4CAF50"/>
    <path d="M24.2009 73.0535C24.2009 64.5533 31.1256 57.6286 39.6258 57.6286C45.8653 57.6286 51.2695 61.3767 53.6987 66.7663L70.9811 49.4838C63.7963 39.9505 52.4237 33.8135 39.6221 33.8135C18.0089 33.8135 0.385742 51.4 0.385742 73.0535C0.385742 85.844 6.58134 97.1984 16.0964 104.369L33.3532 87.1117C27.9747 84.7009 24.2009 79.315 24.2009 73.0535Z" fill="#FFC107"/>
</svg>
