<svg width="137" height="154" viewBox="0 0 137 154" fill="none" xmlns="http://www.w3.org/2000/svg">
    <path d="M7.00693 113.583L12.6313 116.83L75.2896 8.30593L69.6652 5.05857L7.00693 113.583Z" fill="#E535AB"/>
    <path d="M131.035 104.916H5.71875V111.41H131.035V104.916Z" fill="#E535AB"/>
    <path d="M8.19768 108.563L70.8794 144.753L74.1267 139.129L11.445 102.938L8.19768 108.563Z" fill="#E535AB"/>
    <path d="M62.6518 14.2437L125.333 50.4341L128.581 44.8097L65.8991 8.6193L62.6518 14.2437Z" fill="#E535AB"/>
    <path d="M8.21554 44.7809L11.4629 50.4053L74.1446 14.2149L70.8973 8.59049L8.21554 44.7809Z" fill="#E535AB"/>
    <path d="M61.5175 8.30788L124.176 116.832L129.8 113.585L67.1419 5.06053L61.5175 8.30788Z" fill="#E535AB"/>
    <path d="M17.1827 40.4736H10.688V112.854H17.1827V40.4736Z" fill="#E535AB"/>
    <path d="M126.105 40.4736H119.61V112.854H126.105V40.4736Z" fill="#E535AB"/>
    <path d="M66.9384 137.089L69.7749 142.002L124.291 110.526L121.454 105.613L66.9384 137.089Z" fill="#E535AB"/>
    <path d="M134.716 114.971C130.96 121.504 122.587 123.735 116.053 119.979C109.52 116.223 107.289 107.85 111.045 101.316C114.801 94.7822 123.174 92.5521 129.708 96.3081C136.281 100.103 138.511 108.437 134.716 114.971Z" fill="#E535AB"/>
    <path d="M25.7144 52.015C21.9584 58.5489 13.5857 60.779 7.05191 57.023C0.518077 53.267 -1.71203 44.8943 2.04394 38.3605C5.79992 31.8267 14.1726 29.5966 20.7064 33.3525C27.2403 37.1476 29.4704 45.4812 25.7144 52.015Z" fill="#E535AB"/>
    <path d="M2.08154 114.971C-1.67444 108.437 0.555674 100.103 7.08951 96.3081C13.6233 92.5521 21.9569 94.7822 25.752 101.316C29.508 107.85 27.2779 116.183 20.744 119.979C14.1711 123.735 5.83752 121.504 2.08154 114.971Z" fill="#E535AB"/>
    <path d="M111.083 52.015C107.327 45.4812 109.557 37.1476 116.09 33.3525C122.624 29.5966 130.958 31.8267 134.753 38.3605C138.509 44.8943 136.279 53.2279 129.745 57.023C123.211 60.779 114.838 58.5489 111.083 52.015Z" fill="#E535AB"/>
    <path d="M68.3977 153.271C60.8466 153.271 54.7432 147.168 54.7432 139.616C54.7432 132.065 60.8466 125.962 68.3977 125.962C75.9488 125.962 82.0522 132.065 82.0522 139.616C82.0522 147.128 75.9488 153.271 68.3977 153.271Z" fill="#E535AB"/>
    <path d="M68.3977 27.3696C60.8466 27.3696 54.7432 21.2662 54.7432 13.7151C54.7432 6.16401 60.8466 0.0605469 68.3977 0.0605469C75.9488 0.0605469 82.0522 6.16401 82.0522 13.7151C82.0522 21.2662 75.9488 27.3696 68.3977 27.3696Z" fill="#E535AB"/>
</svg>
