<svg width="134" height="114" viewBox="0 0 134 114" fill="none" xmlns="http://www.w3.org/2000/svg">
    <path d="M66.7096 88.1H29.5096L21.9096 111.6C21.7096 112.5 20.9096 113.1 20.0096 113H1.20955C0.109554 113 -0.190444 112.4 0.109556 111.2L32.3096 18.5C32.6096 17.5 32.9095 16.4 33.3096 15.2C33.7096 13.1 33.9095 10.9 33.9095 8.7C33.8096 8.2 34.2096 7.7 34.7096 7.6H60.6096C61.4096 7.6 61.8096 7.9 61.9095 8.4L98.4096 111.4C98.7096 112.5 98.4096 113 97.4096 113H76.5096C75.8096 113.1 75.1096 112.6 74.9096 111.9L66.7096 88.1ZM35.3096 67.8H60.7096C60.1096 65.7 59.3096 63.2 58.4095 60.6C57.5095 57.9 56.6096 55 55.7096 52C54.7096 48.9 53.8096 45.9 52.8096 42.8C51.8096 39.7 50.9096 36.8 50.1096 33.9C49.3096 31.1 48.6096 28.5 47.9095 26.1H47.7096C46.8096 30.4 45.7096 34.7 44.3096 39C42.8096 43.8 41.3096 48.8 39.7096 53.8C38.3096 58.9 36.8096 63.6 35.3096 67.8ZM120.71 25.1C117.41 25.2 114.21 23.9 111.81 21.6C109.51 19.1 108.31 15.8 108.41 12.4C108.31 9 109.61 5.8 112.01 3.5C114.41 1.2 117.61 0 120.91 0C124.81 0 127.81 1.2 130.01 3.5C132.21 5.9 133.41 9.1 133.31 12.4C133.41 15.8 132.21 19.1 129.81 21.6C127.51 24 124.11 25.3 120.71 25.1ZM109.51 111.9V34.9C109.51 33.9 109.91 33.5 110.81 33.5H130.61C131.51 33.5 131.91 34 131.91 34.9V111.9C131.91 113 131.51 113.5 130.61 113.5H111.01C110.01 113.5 109.51 112.9 109.51 111.9Z" fill="#FF9A00"/>
</svg>
