<svg width="31" height="30" viewBox="0 0 31 30" fill="none" xmlns="http://www.w3.org/2000/svg">
    <mask id="mask0_363_21" style="mask-type:luminance" maskUnits="userSpaceOnUse" x="0" y="0" width="31" height="30">
        <path d="M9.16904 0.103873C7.57302 0.179203 6.48292 0.434845 5.53035 0.808099C4.54426 1.19252 3.70835 1.70771 2.87681 2.54266C2.04428 3.3781 1.53301 4.21549 1.15151 5.20257C0.782144 6.15758 0.531847 7.24819 0.461368 8.84519C0.391393 10.4451 0.375346 10.9554 0.383146 15.0287C0.390916 19.1014 0.408892 19.6127 0.485188 21.2131C0.561481 22.8087 0.81617 23.8983 1.18942 24.8514C1.57433 25.8375 2.08899 26.6729 2.92442 27.505C3.75937 28.337 4.59724 28.8478 5.58478 29.2298C6.53881 29.5987 7.62988 29.85 9.22641 29.9199C10.8263 29.9904 11.3371 30.006 15.4093 29.9982C19.4834 29.9904 19.9942 29.9724 21.5942 29.8966C23.1902 29.8203 24.2793 29.5647 25.2328 29.1924C26.2189 28.8065 27.0548 28.2928 27.8864 27.4573C28.7179 26.6224 29.2292 25.7845 29.6107 24.7969C29.9801 23.8429 30.2314 22.7518 30.3009 21.1563C30.3708 19.5553 30.3874 19.0441 30.3796 14.9713C30.3718 10.8981 30.3534 10.3878 30.2775 8.78834C30.2017 7.19132 29.9461 6.10218 29.5733 5.14863C29.1879 4.16253 28.6737 3.32756 27.8388 2.49503C27.0038 1.66348 26.166 1.15122 25.1784 0.77068C24.2239 0.401311 23.1333 0.149554 21.5368 0.0805418C19.9369 0.00958578 19.4261 -0.00595722 15.3524 0.00181578C11.2798 0.00958877 10.769 0.0270908 9.16904 0.103873ZM9.34402 27.2202C7.88163 27.1565 7.08752 26.9135 6.55827 26.7099C5.85745 26.4387 5.35736 26.1135 4.83101 25.5911C4.30565 25.0667 3.97953 24.568 3.70592 23.8687C3.50032 23.3394 3.25296 22.5462 3.18444 21.0838C3.11008 19.5029 3.09308 19.0285 3.08578 15.0233C3.07801 11.0191 3.09257 10.5448 3.1616 8.96233C3.22428 7.5009 3.46876 6.7058 3.67189 6.17702C3.94307 5.47522 4.26723 4.97609 4.79067 4.44975C5.31505 3.9234 5.81369 3.59826 6.51353 3.32465C7.04231 3.11808 7.83547 2.87265 9.29736 2.80316C10.8793 2.72831 11.3531 2.71227 15.3573 2.7045C19.3624 2.69671 19.8368 2.71082 21.4192 2.78032C22.8806 2.84398 23.6757 3.08602 24.204 3.29062C24.9053 3.56181 25.4054 3.88501 25.9312 4.40941C26.4571 4.93382 26.7832 5.43149 27.0568 6.13279C27.2633 6.6601 27.5088 7.45424 27.5778 8.91567C27.6531 10.4976 27.6701 10.972 27.6774 14.9762C27.6852 18.9814 27.6706 19.4557 27.6011 21.0372C27.5375 22.4996 27.2949 23.2942 27.0908 23.8239C26.8196 24.5243 26.4955 25.0244 25.9715 25.5507C25.4477 26.0751 24.949 26.4022 24.2487 26.6758C23.7209 26.8819 22.9268 27.1278 21.4658 27.1973C19.8839 27.2717 19.4101 27.2887 15.4044 27.296C11.4003 27.3038 10.9264 27.2887 9.34402 27.2202ZM21.5723 6.98185C21.5742 7.97525 22.3819 8.7796 23.3753 8.77765C24.3692 8.77571 25.1735 7.96845 25.1721 6.97505C25.1701 5.98164 24.3624 5.17683 23.3685 5.17877C22.3747 5.18071 21.5703 5.98845 21.5723 6.98185ZM7.67948 15.0146C7.68772 19.2686 11.1427 22.7095 15.3957 22.7013C19.6492 22.693 23.092 19.239 23.0838 14.9849C23.0755 10.7324 19.62 7.28949 15.3661 7.29775C11.113 7.30601 7.6712 10.7615 7.67948 15.0146ZM10.3811 15.0092C10.3763 12.2482 12.6109 10.0053 15.3714 10.0004C18.1324 9.9951 20.3757 12.2288 20.3811 14.9903C20.3865 17.7518 18.1518 19.9942 15.3903 19.9996C12.6299 20.0049 10.3865 17.7707 10.3811 15.0092Z" fill="white"/>
    </mask>
    <g mask="url(#mask0_363_21)">
        <mask id="mask1_363_21" style="mask-type:luminance" maskUnits="userSpaceOnUse" x="-1" y="-2" width="33" height="34">
            <path d="M31.5694 -1.17477H-0.830566V31.2257H31.5694V-1.17477Z" fill="white"/>
        </mask>
        <g mask="url(#mask1_363_21)">
            <mask id="mask2_363_21" style="mask-type:luminance" maskUnits="userSpaceOnUse" x="-1" y="-2" width="33" height="34">
                <path d="M31.72 -1.3248H-0.97998V31.3756H31.72V-1.3248Z" fill="white"/>
            </mask>
            <g mask="url(#mask2_363_21)">
                <mask id="mask3_363_21" style="mask-type:luminance" maskUnits="userSpaceOnUse" x="-1" y="-2" width="33" height="34">
                    <path d="M31.7205 -1.3248H-0.979492V31.3756H31.7205V-1.3248Z" fill="white"/>
                </mask>
                <g mask="url(#mask3_363_21)">
                    <path d="M15.5098 0C9.0369 0 7.14384 0.00667749 6.77586 0.0372031C5.44752 0.14762 4.62094 0.356769 3.72043 0.805114C3.02645 1.14972 2.47913 1.54918 1.93897 2.10913C0.955237 3.13031 0.359032 4.38663 0.143206 5.88001C0.0382744 6.60499 0.00774872 6.75285 0.0015482 10.456C-0.000836617 11.6904 0.0015482 13.3149 0.0015482 15.4939C0.0015482 21.9615 0.00870265 23.8527 0.0397053 24.22C0.147022 25.5125 0.349731 26.3258 0.778999 27.2153C1.59938 28.9181 3.1662 30.1963 5.01205 30.6733C5.65118 30.8378 6.35709 30.9285 7.26332 30.9714C7.64727 30.9881 11.5608 31 15.4766 31C19.3925 31 23.3084 30.9952 23.6828 30.9762C24.7321 30.9268 25.3414 30.845 26.0151 30.6709C27.8729 30.1915 29.4111 28.9324 30.2482 27.2058C30.6691 26.3377 30.8825 25.4935 30.9791 24.2684C31.0001 24.0013 31.0089 19.7427 31.0089 15.4899C31.0089 11.2363 30.9994 6.98561 30.9784 6.71851C30.8806 5.47363 30.6672 4.63656 30.2327 3.75179C29.8761 3.02753 29.4803 2.48665 28.9055 1.93361C27.8798 0.953927 26.6254 0.357723 25.1306 0.142135C24.4063 0.0374416 24.2621 0.00643901 20.556 0H15.5098Z" fill="url(#paint0_radial_363_21)"/>
                    <path d="M15.5098 0C9.0369 0 7.14384 0.00667749 6.77586 0.0372031C5.44752 0.14762 4.62094 0.356769 3.72043 0.805114C3.02645 1.14972 2.47913 1.54918 1.93897 2.10913C0.955237 3.13031 0.359032 4.38663 0.143206 5.88001C0.0382744 6.60499 0.00774872 6.75285 0.0015482 10.456C-0.000836617 11.6904 0.0015482 13.3149 0.0015482 15.4939C0.0015482 21.9615 0.00870265 23.8527 0.0397053 24.22C0.147022 25.5125 0.349731 26.3258 0.778999 27.2153C1.59938 28.9181 3.1662 30.1963 5.01205 30.6733C5.65118 30.8378 6.35709 30.9285 7.26332 30.9714C7.64727 30.9881 11.5608 31 15.4766 31C19.3925 31 23.3084 30.9952 23.6828 30.9762C24.7321 30.9268 25.3414 30.845 26.0151 30.6709C27.8729 30.1915 29.4111 28.9324 30.2482 27.2058C30.6691 26.3377 30.8825 25.4935 30.9791 24.2684C31.0001 24.0013 31.0089 19.7427 31.0089 15.4899C31.0089 11.2363 30.9994 6.98561 30.9784 6.71851C30.8806 5.47363 30.6672 4.63656 30.2327 3.75179C29.8761 3.02753 29.4803 2.48665 28.9055 1.93361C27.8798 0.953927 26.6254 0.357723 25.1306 0.142135C24.4063 0.0374416 24.2621 0.00643901 20.556 0H15.5098Z" fill="url(#paint1_radial_363_21)"/>
                </g>
            </g>
        </g>
    </g>
    <defs>
        <radialGradient id="paint0_radial_363_21" cx="0" cy="0" r="1" gradientUnits="userSpaceOnUse" gradientTransform="translate(8.23715 33.3877) rotate(-90) scale(30.7233 28.5829)">
            <stop stop-color="#FFDD55"/>
            <stop offset="0.1" stop-color="#FFDD55"/>
            <stop offset="0.5" stop-color="#FF543E"/>
            <stop offset="1" stop-color="#C837AB"/>
        </radialGradient>
        <radialGradient id="paint1_radial_363_21" cx="0" cy="0" r="1" gradientUnits="userSpaceOnUse" gradientTransform="translate(-5.19359 2.23319) rotate(78.6776) scale(13.7336 56.6247)">
            <stop stop-color="#3771C8"/>
            <stop offset="0.128" stop-color="#3771C8"/>
            <stop offset="1" stop-color="#6600FF" stop-opacity="0"/>
        </radialGradient>
    </defs>
</svg>
