<svg width="161" height="114" viewBox="0 0 161 114" fill="none" xmlns="http://www.w3.org/2000/svg">
    <path d="M99.8251 79.6964C104.724 87.6796 111.098 93.5476 122.372 93.5476C131.842 93.5476 137.892 88.8239 137.892 82.2971C137.892 74.4757 131.676 71.7054 121.252 67.1552L115.538 64.7086C99.0452 57.6963 88.0884 48.9116 88.0884 30.3406C88.0884 13.2337 101.149 0.210938 121.561 0.210938C136.093 0.210938 146.54 5.25824 154.069 18.4737L136.271 29.8783C132.352 22.866 128.124 20.1035 121.561 20.1035C114.867 20.1035 110.624 24.3417 110.624 29.8783C110.624 36.7211 114.87 39.4913 124.677 43.7295L130.391 46.1722C149.81 54.4829 160.775 62.9555 160.775 82.0042C160.775 102.54 144.61 113.791 122.901 113.791C101.674 113.791 87.961 103.696 81.2511 90.4652L99.8251 79.6964ZM19.0854 81.6729C22.6759 88.0302 25.9421 93.405 33.7948 93.405C41.304 93.405 46.0411 90.4729 46.0411 79.0722V1.51321H68.8967V79.3804C68.8967 102.999 55.0212 113.748 34.7677 113.748C16.4678 113.748 5.87007 104.297 0.480469 92.9137L19.0854 81.6729Z" fill="#F7DF1E"/>
</svg>
