<svg width="31" height="30" viewBox="0 0 31 30" fill="none" xmlns="http://www.w3.org/2000/svg">
    <rect x="1.66797" y="1.79999" width="27.6" height="26.4" rx="11" fill="white"/>
    <path d="M26.4118 25.562H21.9223V18.6006C21.9223 16.9406 21.8924 14.8037 19.5874 14.8037C17.2491 14.8037 16.8914 16.6123 16.8914 18.4798V25.5616H12.4019V11.2461H16.7118V13.2025H16.7721C17.2034 12.4723 17.8267 11.8716 18.5755 11.4644C19.3244 11.0571 20.1707 10.8587 21.0245 10.89C25.5747 10.89 26.4136 13.8535 26.4136 17.7088L26.4118 25.562ZM7.33636 9.2893C6.82109 9.28939 6.31735 9.13819 5.88886 8.85481C5.46038 8.57144 5.1264 8.16862 4.92913 7.69729C4.73186 7.22596 4.68016 6.7073 4.78059 6.20688C4.88103 5.70647 5.12908 5.24678 5.49337 4.88595C5.85766 4.52512 6.32183 4.27935 6.82719 4.17973C7.33254 4.08011 7.85637 4.1311 8.33246 4.32626C8.80855 4.52142 9.21549 4.85198 9.50184 5.27614C9.78819 5.70031 9.94108 6.19902 9.94117 6.70922C9.94123 7.04798 9.8739 7.38344 9.74303 7.69643C9.61216 8.00943 9.42032 8.29384 9.17845 8.53342C8.93657 8.773 8.64938 8.96306 8.33332 9.09276C8.01725 9.22245 7.67849 9.28924 7.33636 9.2893ZM9.58107 25.562H5.08697V11.2461H9.58107V25.562ZM28.6499 0.00204395H2.83105C2.24503 -0.00450411 1.68034 0.219579 1.2611 0.625053C0.841855 1.03053 0.602367 1.58422 0.595215 2.16445V27.8351C0.602122 28.4156 0.84147 28.9697 1.2607 29.3756C1.67992 29.7815 2.24474 30.006 2.83105 29.9998H28.6499C29.2374 30.0071 29.8038 29.7832 30.2247 29.3774C30.6456 28.9715 30.8865 28.4168 30.8946 27.8351V2.1626C30.8863 1.58121 30.6451 1.02689 30.2242 0.62143C29.8034 0.215966 29.2371 -0.00747679 28.6499 0.000191027" fill="#0A66C2"/>
</svg>
