<svg width="73" height="157" viewBox="0 0 73 157" fill="none" xmlns="http://www.w3.org/2000/svg">
    <path d="M49.8989 17.6875C43.3864 9.88644 37.7784 1.96351 36.6929 0.317981C36.5723 0.19609 36.3914 0.19609 36.2708 0.317981C35.1251 1.96351 29.5171 9.88644 23.0046 17.6875C-32.8343 89.6643 31.8085 138.238 31.8085 138.238L32.3512 138.604C32.8337 146.1 34.0397 156.887 34.0397 156.887H36.4517H38.8638C38.8638 156.887 40.0698 146.161 40.5522 138.604L41.0949 138.177C41.0949 138.238 105.738 89.6643 49.8989 17.6875ZM36.4517 137.141C36.4517 137.141 33.5573 134.642 32.7734 133.362V133.24L36.2708 54.8643C36.2708 54.6205 36.6326 54.6205 36.6326 54.8643L40.0698 133.24V133.362C39.2859 134.642 36.4517 137.141 36.4517 137.141Z" fill="#00684A"/>
</svg>
