<svg width="176" height="121" viewBox="0 0 176 121" fill="none" xmlns="http://www.w3.org/2000/svg">
    <path d="M42.2865 109.974H35.5105C35.2759 98.4701 34.6243 87.6478 33.5298 77.533H33.4776L23.1572 109.974H17.9969L7.72857 77.533H7.67645C6.92065 87.2547 6.42548 98.077 6.24305 109.974H0.0664062C0.457333 95.509 1.47374 81.9353 3.06351 69.2526H11.4554L21.2286 99.1776H21.2807L31.106 69.2526H39.133C40.9313 84.1103 41.9738 97.6839 42.2865 109.974Z" fill="#00758F"/>
    <path d="M71.6845 79.9457C68.9219 95.0131 65.2733 105.94 60.7646 112.753C57.2462 118.02 53.3891 120.641 49.1931 120.641C48.0725 120.641 46.6912 120.3 45.0493 119.619V116.003C45.8572 116.107 46.7955 116.186 47.864 116.186C49.8186 116.186 51.4084 115.636 52.6072 114.561C54.0406 113.225 54.7704 111.757 54.7704 110.107C54.7704 108.98 54.197 106.674 53.1024 103.163L45.6748 79.9457H52.3205L57.6632 97.319C58.8621 101.25 59.3572 104.027 59.1748 105.573C62.0937 97.7383 64.1266 89.1958 65.2993 79.9457H71.6845Z" fill="#00758F"/>
    <path d="M101.366 98.7079C101.366 102.167 100.116 104.997 97.5875 107.224C95.0595 109.425 91.6976 110.526 87.4495 110.526C83.4881 110.526 79.657 109.242 75.9302 106.726L77.6763 103.241C80.8819 104.84 83.7748 105.652 86.3809 105.652C88.8308 105.652 90.7333 105.102 92.1145 104.027C93.4958 102.953 94.3298 101.433 94.3298 99.494C94.3298 97.0832 92.6618 95.0131 89.5865 93.2836C86.7458 91.7114 81.0644 88.4359 81.0644 88.4359C77.9891 86.1824 76.4514 83.7716 76.4514 79.7624C76.4514 76.4606 77.5981 73.7878 79.8916 71.7701C82.185 69.7262 85.156 68.7305 88.8047 68.7305C92.5576 68.7305 95.9717 69.7262 99.047 71.7439L97.4833 75.2291C94.851 74.1023 92.2449 73.552 89.6908 73.552C87.6059 73.552 86.0161 74.0499 84.8954 75.0719C83.7748 76.0676 83.0711 77.3516 83.0711 78.9238C83.0711 81.3346 84.7912 83.4309 87.9447 85.1866C90.8114 86.7588 96.6232 90.0867 96.6232 90.0867C99.8028 92.3403 101.366 94.7511 101.366 98.7079Z" fill="#F29111"/>
    <path fill-rule="evenodd" clip-rule="evenodd" d="M113.486 101.847C111.844 99.2006 111.036 94.9293 111.036 89.0596C111.036 78.8139 114.137 73.6779 120.34 73.6779C123.572 73.6779 125.969 74.9094 127.481 77.3464C129.123 79.993 129.931 84.2119 129.931 90.003C129.931 100.327 126.83 105.516 120.627 105.516C117.395 105.516 114.997 104.284 113.486 101.847ZM137.593 110.966L130.139 107.271C130.791 106.721 131.442 106.145 131.99 105.463C135.143 101.716 136.733 96.1871 136.733 88.8762C136.733 75.4073 131.469 68.6729 120.966 68.6729C115.805 68.6729 111.792 70.3761 108.899 73.8089C105.746 77.5561 104.156 83.0589 104.156 90.3436C104.156 97.4973 105.563 102.738 108.352 106.092C110.906 109.106 114.763 110.626 119.923 110.626C121.852 110.626 123.624 110.39 125.214 109.918L134.909 115.578L137.593 110.966Z" fill="#F29111"/>
    <path d="M161.887 109.974H142.627V69.2526H149.116V104.969H161.887V109.974Z" fill="#F29111"/>
    <path d="M166.523 109.974H167.592V105.833H168.999V104.995H165.064V105.833H166.523V109.974ZM174.681 109.974H175.697V104.995H174.186L172.935 108.401L171.579 104.995H170.12V109.974H171.084V106.174H171.136L172.544 109.974H173.273L174.681 106.174V109.974Z" fill="#F29111"/>
    <path fill-rule="evenodd" clip-rule="evenodd" d="M170.019 55.6298C166.11 55.525 163.061 55.918 160.533 57.0186C159.803 57.3069 158.63 57.3068 158.526 58.2502C158.917 58.6432 158.969 59.2721 159.308 59.8224C159.881 60.8182 160.924 62.1284 161.862 62.8097C162.878 63.5958 163.921 64.3819 164.989 65.0632C166.892 66.2424 169.055 66.9237 170.905 68.1029C171.974 68.7842 173.068 69.6752 174.137 70.4089C174.684 70.8019 175.023 71.4308 175.701 71.6929V71.5357C175.362 71.0902 175.258 70.4613 174.919 69.9634C174.424 69.4655 173.928 69.0201 173.459 68.5484C172.052 66.6355 170.28 64.9584 168.377 63.5696C166.814 62.4953 163.373 61.0016 162.748 59.1935C162.748 59.1935 162.696 59.1411 162.644 59.0887C163.712 58.9839 164.989 58.5909 166.032 58.3026C167.7 57.8571 169.211 57.962 170.931 57.5165C171.713 57.3069 172.495 57.071 173.277 56.8352V56.3897C172.391 55.4988 171.765 54.3196 170.827 53.4811C168.325 51.3061 165.589 49.2098 162.748 47.4279C161.236 46.4322 159.282 45.8033 157.666 44.9648C157.093 44.6765 156.102 44.5193 155.763 44.0214C154.877 42.947 154.382 41.5058 153.757 40.2218C152.349 37.5228 150.968 34.5093 149.743 31.6531C148.857 29.7402 148.336 27.8273 147.241 26.0454C142.211 17.6863 136.712 12.629 128.32 7.6502C126.522 6.62824 124.359 6.18279 122.066 5.6325C120.841 5.58009 119.616 5.47526 118.391 5.44905C117.609 5.1084 116.827 4.16506 116.15 3.71959C113.361 1.93771 106.168 -1.88807 104.109 3.16931C102.78 6.3662 106.064 9.5107 107.184 11.1353C108.018 12.2621 109.087 13.5461 109.686 14.8301C110.025 15.6686 110.129 16.5596 110.468 17.4505C111.25 19.6255 111.98 22.0362 113.022 24.0539C113.569 25.0759 114.143 26.1764 114.82 27.0936C115.211 27.6439 115.889 27.8797 116.045 28.7706C115.368 29.7664 115.316 31.2338 114.925 32.4654C113.152 38.0207 113.856 44.9124 116.332 49.0002C117.114 50.2318 118.964 52.9308 121.466 51.9088C123.655 51.0179 123.186 48.2141 123.812 45.7509C123.968 45.1482 123.864 44.7551 124.15 44.362V44.4669C124.828 45.8295 125.532 47.1659 126.157 48.5547C127.669 50.9655 130.327 53.481 132.516 55.1319C133.689 56.0228 134.627 57.5427 136.087 58.093V57.9358H135.983C135.696 57.4903 135.253 57.3068 134.862 56.9662C133.976 56.0752 133.011 55.0009 132.308 54.0051C130.249 51.2537 128.451 48.1878 126.835 45.0433C126.053 43.5235 125.375 41.8465 124.724 40.3266C124.437 39.7501 124.437 38.8592 123.942 38.5448C123.212 39.6191 122.144 40.5625 121.596 41.8727C120.658 43.9952 120.58 46.5894 120.215 49.3146C120.033 49.367 120.111 49.3146 120.033 49.4194C118.469 49.0264 117.922 47.4017 117.348 46.0391C115.889 42.554 115.628 36.9463 116.905 32.9109C117.244 31.8889 118.73 28.6396 118.13 27.6439C117.844 26.7005 116.853 26.1765 116.332 25.4165C115.706 24.4732 115.003 23.294 114.586 22.2721C113.413 19.5206 112.814 16.4547 111.563 13.7033C110.963 12.4193 109.947 11.0829 109.113 9.90374C108.175 8.56733 107.158 7.6502 106.428 6.07796C106.194 5.52767 105.855 4.63674 106.22 4.06026C106.324 3.6672 106.507 3.50996 106.898 3.43135C107.523 2.88107 109.347 3.58856 109.973 3.87681C111.797 4.61052 113.309 5.31804 114.82 6.34C115.498 6.83787 116.228 7.75502 117.114 8.01706H118.156C119.72 8.35771 121.492 8.12187 122.952 8.56734C125.532 9.40587 127.903 10.6375 129.988 11.9739C136.4 16.0617 141.69 21.8528 145.261 28.7968C145.86 29.9236 146.094 30.9718 146.642 32.151C147.658 34.5617 148.935 37.0249 149.978 39.3833C150.994 41.6892 151.984 44.0476 153.444 45.9867C154.174 47.0087 157.119 47.559 158.422 48.1092C159.386 48.5547 160.924 48.9478 161.81 49.4718C163.478 50.4938 165.146 51.673 166.709 52.826C167.439 53.4287 169.889 54.6602 170.019 55.6298Z" fill="#00758F"/>
    <path fill-rule="evenodd" clip-rule="evenodd" d="M120.134 12.8902C119.3 12.8902 118.727 12.995 118.127 13.1261V13.2309H118.232C118.623 14.017 119.3 14.5673 119.795 15.2486C120.186 16.0347 120.525 16.8208 120.916 17.6069C120.968 17.5545 121.02 17.5021 121.02 17.5021C121.698 17.0042 122.063 16.2181 122.063 15.0389C121.776 14.6983 121.724 14.3576 121.463 14.017C121.151 13.5191 120.525 13.2833 120.134 12.8902Z" fill="#00758F"/>
</svg>
