<svg width="138" height="131" viewBox="0 0 138 131" fill="none" xmlns="http://www.w3.org/2000/svg">
    <path d="M92.7932 0.971436C65.7463 0.971436 47.5957 16.789 47.5957 47.474V69.3515C50.3418 67.9957 53.3557 67.2762 56.4154 67.2459C59.4809 67.2466 62.5059 67.9491 65.2606 69.3001V47.3712C65.2606 27.4709 76.2021 17.2512 92.8699 17.2512C109.538 17.2512 120.326 27.4709 120.326 47.3712V95.1833H137.94V47.3712C137.991 16.5065 119.84 0.971436 92.7932 0.971436Z" fill="white"/>
    <path d="M55.6544 72.8731C52.3832 72.8766 49.2037 73.9592 46.6046 75.9544L30.039 64.5791C30.4077 63.2497 30.5969 61.8764 30.6015 60.4964C30.6369 57.4988 29.7847 54.5582 28.153 52.0481C26.5214 49.5379 24.1838 47.5715 21.4373 46.3984C18.6907 45.2253 15.6591 44.8986 12.7272 45.4596C9.79544 46.0207 7.09575 47.4442 4.971 49.5494C2.84626 51.6547 1.39231 54.3467 0.793784 57.2836C0.195259 60.2205 0.479159 63.2698 1.60943 66.0443C2.73971 68.8189 4.66537 71.1934 7.14188 72.8664C9.6184 74.5395 12.534 75.4356 15.5186 75.4409C18.7907 75.4431 21.972 74.3599 24.5683 72.3595L41.0828 83.8118C40.3326 86.4903 40.3326 89.3246 41.0828 92.0031L24.5172 103.378C21.9348 101.389 18.7732 100.306 15.5186 100.297C12.5333 100.292 9.61366 101.177 7.12938 102.84C4.6451 104.502 2.70793 106.868 1.56317 109.637C0.418417 112.407 0.117571 115.455 0.698732 118.396C1.27989 121.337 2.71692 124.039 4.82784 126.16C6.93875 128.28 9.62861 129.723 12.5568 130.307C15.485 130.891 18.5197 130.589 21.2768 129.439C24.0339 128.289 26.3892 126.343 28.0446 123.848C29.7 121.352 30.5809 118.42 30.5759 115.421C30.5751 114.06 30.3946 112.704 30.039 111.39L46.6046 100.015C49.2037 102.01 52.3832 103.092 55.6544 103.096C59.4588 102.823 63.0191 101.112 65.6182 98.3083C68.2174 95.5045 69.6624 91.8156 69.6624 87.9845C69.6624 84.1534 68.2174 80.4645 65.6182 77.6606C63.0191 74.8567 59.4588 73.1461 55.6544 72.8731Z" fill="#018BFF"/>
</svg>
