<svg width="136" height="154" viewBox="0 0 136 154" fill="none" xmlns="http://www.w3.org/2000/svg">
    <mask id="mask0_345_183" style="mask-type:luminance" maskUnits="userSpaceOnUse" x="0" y="0" width="136" height="154">
        <path d="M64.0457 1.37928L3.88466 36.0706C1.6313 37.3688 0.249023 39.7655 0.249023 42.3563V111.787C0.249023 114.38 1.6313 116.775 3.88466 118.073L64.05 152.791C66.2991 154.085 69.0722 154.085 71.3184 152.791L131.474 118.073C133.716 116.775 135.101 114.378 135.101 111.787V42.3563C135.101 39.7655 133.716 37.3688 131.46 36.0706L71.3127 1.37928C70.1846 0.733013 68.928 0.40918 67.6714 0.40918C66.4147 0.40918 65.1581 0.733013 64.03 1.37928" fill="white"/>
    </mask>
    <g mask="url(#mask0_345_183)">
        <path d="M195.892 30.1785L26.3687 -52.8369L-60.5527 124.313L108.966 207.333L195.892 30.1785Z" fill="url(#paint0_linear_345_183)"/>
    </g>
    <mask id="mask1_345_183" style="mask-type:luminance" maskUnits="userSpaceOnUse" x="1" y="0" width="133" height="154">
        <path d="M1.73926 116.194C2.31474 116.94 3.03444 117.586 3.88124 118.071L55.4887 147.852L64.0852 152.788C65.3704 153.53 66.8355 153.844 68.2749 153.737C68.7547 153.698 69.2345 153.609 69.7029 153.476L133.154 37.4055C132.669 36.8776 132.1 36.4354 131.463 36.0645L92.0709 13.3383L71.248 1.3689C70.6568 1.02651 70.0156 0.783988 69.363 0.612793L1.73926 116.194Z" fill="white"/>
    </mask>
    <g mask="url(#mask1_345_183)">
        <path d="M-71.563 54.7303L48.1379 216.585L206.444 99.7361L86.7364 -62.1147L-71.563 54.7303Z" fill="url(#paint1_linear_345_183)"/>
    </g>
    <mask id="mask2_345_183" style="mask-type:luminance" maskUnits="userSpaceOnUse" x="4" y="0" width="131" height="154">
        <path d="M66.9474 0.441653C65.9378 0.541517 64.9511 0.855364 64.0414 1.3718L4.05176 35.9632L68.7395 153.674C69.6391 153.546 70.5245 153.246 71.3241 152.784L131.485 118.066C133.342 116.99 134.612 115.17 134.998 113.107L69.0536 0.560052C68.5681 0.464468 68.0826 0.414551 67.5828 0.414551C67.3829 0.414551 67.183 0.424521 66.9831 0.443068" fill="white"/>
    </mask>
    <g mask="url(#mask2_345_183)">
        <path d="M4.0498 0.414551V153.677H134.972V0.414551H4.0498Z" fill="url(#paint2_linear_345_183)"/>
    </g>
    <defs>
        <linearGradient id="paint0_linear_345_183" x1="111.079" y1="-11.4598" x2="24.2974" y2="165.744" gradientUnits="userSpaceOnUse">
            <stop offset="0.3" stop-color="#3E863D"/>
            <stop offset="0.5" stop-color="#55934F"/>
            <stop offset="0.8" stop-color="#5AAD45"/>
        </linearGradient>
        <linearGradient id="paint1_linear_345_183" x1="-10.9952" y1="136.586" x2="147.211" y2="19.5787" gradientUnits="userSpaceOnUse">
            <stop offset="0.57" stop-color="#3E863D"/>
            <stop offset="0.72" stop-color="#619857"/>
            <stop offset="1" stop-color="#76AC64"/>
        </linearGradient>
        <linearGradient id="paint2_linear_345_183" x1="4.09397" y1="77.0502" x2="134.997" y2="77.0502" gradientUnits="userSpaceOnUse">
            <stop offset="0.16" stop-color="#6BBF47"/>
            <stop offset="0.38" stop-color="#79B461"/>
            <stop offset="0.47" stop-color="#75AC64"/>
            <stop offset="0.7" stop-color="#659E5A"/>
            <stop offset="0.9" stop-color="#3E863D"/>
        </linearGradient>
    </defs>
</svg>
