<svg width="145" height="108" viewBox="0 0 145 108" fill="none" xmlns="http://www.w3.org/2000/svg">
    <path d="M0 104.6V1.7C0 1 0.3 0.599998 1 0.599998C2.7 0.599998 4.3 0.6 6.6 0.5C9 0.4 11.5 0.399999 14.2 0.299999C16.9 0.199999 19.8 0.199998 22.9 0.0999985C26 -1.52737e-06 29 0 32 0C40.2 0 47 0.999999 52.6 3.1C57.6 4.8 62.2 7.6 66 11.3C69.2 14.5 71.7 18.4 73.3 22.7C74.8 26.9 75.6 31.2 75.6 35.7C75.6 44.3 73.6 51.4 69.6 57C65.6 62.6 60 66.8 53.5 69.2C46.7 71.7 39.2 72.6 31 72.6C28.6 72.6 27 72.6 26 72.5C25 72.4 23.6 72.4 21.7 72.4V104.5C21.8 105.2 21.3 105.8 20.6 105.9C20.5 105.9 20.4 105.9 20.2 105.9H1.2C0.400001 105.9 0 105.5 0 104.6ZM21.8 19.9V53.5C23.2 53.6 24.5 53.7 25.7 53.7H31C34.9 53.7 38.8 53.1 42.5 51.9C45.7 51 48.5 49.1 50.7 46.6C52.8 44.1 53.8 40.7 53.8 36.3C53.9 33.2 53.1 30.1 51.5 27.4C49.8 24.8 47.4 22.8 44.5 21.7C40.8 20.2 36.8 19.6 32.7 19.7C30.1 19.7 27.8 19.7 25.9 19.8C23.9 19.7 22.5 19.8 21.8 19.9Z" fill="#31A8FF"/>
    <path d="M138 47.3998C135 45.7998 131.8 44.6998 128.4 43.9998C124.7 43.1998 121 42.6998 117.2 42.6998C115.2 42.5998 113.1 42.8998 111.2 43.3998C109.9 43.6998 108.8 44.3998 108.1 45.3998C107.6 46.1998 107.3 47.1998 107.3 48.0998C107.3 48.9998 107.7 49.8998 108.3 50.6998C109.2 51.7998 110.4 52.6998 111.7 53.3998C114 54.5998 116.4 55.6998 118.8 56.6998C124.2 58.4998 129.4 60.9998 134.2 63.9998C137.5 66.0998 140.2 68.8998 142.1 72.2998C143.7 75.4998 144.5 78.9998 144.4 82.5998C144.5 87.2998 143.1 91.9998 140.5 95.8998C137.7 99.8998 133.8 103 129.3 104.8C124.4 106.9 118.4 108 111.2 108C106.6 108 102.1 107.6 97.6001 106.7C94.1001 106.1 90.6001 105 87.4001 103.5C86.7001 103.1 86.2001 102.4 86.3001 101.6V84.1998C86.3001 83.8998 86.4001 83.4998 86.7001 83.2998C87.0001 83.0998 87.3001 83.1998 87.6001 83.3998C91.5001 85.6998 95.6001 87.2998 100 88.2998C103.8 89.2998 107.8 89.7998 111.8 89.7998C115.6 89.7998 118.3 89.2998 120.1 88.3998C121.7 87.6998 122.8 85.9998 122.8 84.1998C122.8 82.7998 122 81.4998 120.4 80.1998C118.8 78.8998 115.5 77.3998 110.6 75.4998C105.5 73.6998 100.8 71.2998 96.4001 68.2998C93.3001 66.0998 90.7001 63.1998 88.8001 59.7998C87.2001 56.5998 86.4001 53.0998 86.5001 49.5998C86.5001 45.2998 87.7001 41.1998 89.9001 37.4998C92.4001 33.4998 96.1001 30.2998 100.4 28.2998C105.1 25.8998 111 24.7998 118.1 24.7998C122.2 24.7998 126.4 25.0998 130.5 25.6998C133.5 26.0998 136.4 26.8998 139.1 27.9998C139.5 28.0998 139.9 28.4998 140.1 28.8998C140.2 29.2998 140.3 29.6998 140.3 30.0998V46.3998C140.3 46.7998 140.1 47.1998 139.8 47.3998C138.9 47.5998 138.4 47.5998 138 47.3998Z" fill="#31A8FF"/>
</svg>
