<svg width="154" height="78" viewBox="0 0 154 78" fill="none" xmlns="http://www.w3.org/2000/svg">
    <path d="M12.1927 16.6382H34.8607C41.5653 16.6382 46.3543 18.5522 49.3873 22.3802C52.4204 26.2083 53.3782 31.3123 52.4204 37.8519C52.1011 40.8824 51.1433 43.7534 49.8662 46.6245C48.5892 49.4955 46.8332 52.0475 44.4387 54.44C41.5653 57.3111 38.5323 59.2251 35.3396 60.0226C32.1469 60.8201 28.7946 61.1391 25.2827 61.1391H15.0661L11.8734 77.2487H0.0605469L12.1927 16.6382ZM22.09 26.3678L16.9817 51.7285C17.301 51.7285 17.6202 51.888 17.9395 51.888C18.2588 51.888 18.7377 51.888 19.0569 51.888C24.4845 51.888 28.9542 51.4095 32.6258 50.293C36.2974 49.1765 38.6919 45.0294 39.969 38.0114C40.9268 32.1098 39.969 28.7603 36.9359 27.8033C33.9029 26.8463 30.2313 26.5273 25.7616 26.5273C25.123 26.5273 24.4845 26.6868 23.846 26.6868C23.2074 26.3678 22.5689 26.3678 22.09 26.3678Z" fill="#7699FA"/>
    <path d="M65.6678 0.525391H77.3211L73.9687 16.635H84.5046C90.2514 16.7945 94.5615 17.911 97.4349 20.1441C100.308 22.3771 101.106 26.6836 99.989 33.0637L94.2422 61.2954H82.4293L87.8569 34.3397C88.4954 31.4687 88.1761 29.5547 87.378 28.2786C86.4202 27.1621 84.5046 26.5241 81.4715 26.5241L72.0531 26.3646L65.1889 61.1359H53.5356L65.6678 0.525391Z" fill="#7699FA"/>
    <path d="M112.441 16.6382H135.109C141.813 16.6382 146.602 18.5522 149.635 22.3802C152.668 26.2083 153.626 31.3123 152.668 37.8519C152.349 40.8824 151.391 43.7534 150.114 46.6245C148.837 49.4955 147.081 52.0475 144.687 54.44C141.813 57.3111 138.78 59.2251 135.588 60.0226C132.395 60.8201 129.043 61.1391 125.531 61.1391H115.314L112.121 77.2487H100.309L112.441 16.6382ZM122.338 26.3678L117.23 51.7285C117.549 51.7285 117.868 51.888 118.188 51.888C118.507 51.888 118.986 51.888 119.305 51.888C124.733 51.888 129.202 51.4095 132.874 50.293C136.545 49.1765 138.94 45.0294 140.217 38.0114C141.175 32.1098 140.217 28.7603 137.184 27.8033C134.151 26.8463 130.479 26.5273 126.01 26.5273C125.371 26.5273 124.733 26.6868 124.094 26.6868C123.455 26.3678 122.817 26.3678 122.338 26.3678Z" fill="#7699FA"/>
</svg>
