<svg width="148" height="133" viewBox="0 0 148 133" fill="none" xmlns="http://www.w3.org/2000/svg">
    <path d="M148.007 66.4366C148.007 56.6691 135.8 47.4125 117.085 41.6722C121.404 22.5579 119.484 7.35061 111.026 2.48187C109.076 1.33982 106.797 0.798852 104.308 0.798852V7.50088C105.687 7.50088 106.797 7.77136 107.727 8.28228C111.806 10.6265 113.575 19.5525 112.196 31.0331C111.866 33.8582 111.326 36.8335 110.666 39.869C104.788 38.4264 98.369 37.3144 91.6207 36.5931C87.5716 31.0331 83.3726 25.984 79.1436 21.5661C88.9213 12.4598 98.0991 7.47083 104.338 7.47083V0.768799C96.0896 0.768799 85.2922 6.65937 74.3748 16.8777C63.4574 6.71948 52.6599 0.889015 44.4119 0.889015V7.59104C50.6204 7.59104 59.8282 12.5499 69.6059 21.5962C65.4069 26.0141 61.2079 31.0331 57.2189 36.5931C50.4405 37.3144 44.022 38.4264 38.1434 39.899C37.4536 36.8936 36.9437 33.9784 36.5838 31.1834C35.1741 19.7028 36.9137 10.7768 40.9627 8.4025C41.8625 7.86153 43.0322 7.6211 44.4119 7.6211V0.919068C41.8925 0.919068 39.6131 1.46004 37.6335 2.60209C29.2055 7.47082 27.316 22.6481 31.665 41.7022C13.0094 47.4726 0.862305 56.6992 0.862305 66.4366C0.862305 76.2042 13.0694 85.4608 31.7849 91.2011C27.466 110.315 29.3855 125.523 37.8435 130.391C39.793 131.533 42.0725 132.074 44.5919 132.074C52.8399 132.074 63.6373 126.184 74.5547 115.965C85.4721 126.124 96.2695 131.954 104.518 131.954C107.037 131.954 109.316 131.413 111.296 130.271C119.724 125.402 121.613 110.225 117.265 91.171C135.86 85.4307 148.007 76.1741 148.007 66.4366ZM108.957 46.3907C107.847 50.2676 106.467 54.2648 104.907 58.262C103.678 55.8576 102.388 53.4533 100.978 51.049C99.5987 48.6447 98.1291 46.3005 96.6595 44.0164C100.918 44.6475 105.027 45.4289 108.957 46.3907ZM95.2198 78.3981C92.8803 82.4554 90.4809 86.3023 87.9915 89.8787C83.5226 90.2694 78.9937 90.4798 74.4348 90.4798C69.9058 90.4798 65.3769 90.2694 60.938 89.9088C58.4486 86.3323 56.0191 82.5155 53.6797 78.4883C51.4002 74.5512 49.3307 70.554 47.4412 66.5268C49.3008 62.4996 51.4003 58.4723 53.6497 54.5353C55.9892 50.478 58.3886 46.6311 60.878 43.0547C65.3469 42.664 69.8758 42.4536 74.4348 42.4536C78.9637 42.4536 83.4926 42.664 87.9315 43.0246C90.4209 46.601 92.8504 50.4179 95.1898 54.4451C97.4693 58.3822 99.5388 62.3793 101.428 66.4066C99.5388 70.4338 97.4693 74.461 95.2198 78.3981ZM104.907 74.4911C106.527 78.5183 107.907 82.5455 109.047 86.4526C105.117 87.4143 100.978 88.2257 96.6894 88.8569C98.1591 86.5427 99.6288 84.1684 101.008 81.7341C102.388 79.3298 103.678 76.8954 104.907 74.4911ZM74.4947 106.559C71.7054 103.673 68.9161 100.458 66.1567 96.9414C68.8561 97.0616 71.6154 97.1517 74.4048 97.1517C77.2241 97.1517 80.0134 97.0916 82.7428 96.9414C80.0434 100.458 77.2541 103.673 74.4947 106.559ZM52.1801 88.8569C47.9211 88.2257 43.8121 87.4443 39.883 86.4826C40.9927 82.6057 42.3724 78.6085 43.932 74.6113C45.1617 77.0156 46.4514 79.4199 47.8611 81.8242C49.2708 84.2286 50.7104 86.5728 52.1801 88.8569ZM74.3448 26.3146C77.1341 29.1998 79.9234 32.4156 82.6828 35.9319C79.9834 35.8117 77.2241 35.7215 74.4348 35.7215C71.6154 35.7215 68.8261 35.7816 66.0967 35.9319C68.7961 32.4156 71.5854 29.1998 74.3448 26.3146ZM52.1501 44.0164C50.6804 46.3306 49.2108 48.7048 47.8311 51.1392C46.4514 53.5435 45.1617 55.9478 43.932 58.3521C42.3124 54.3249 40.9327 50.2977 39.793 46.3907C43.7221 45.459 47.8611 44.6475 52.1501 44.0164ZM25.0065 81.6439C14.3891 77.1058 7.52072 71.1551 7.52072 66.4366C7.52072 61.7182 14.3891 55.7374 25.0065 51.2293C27.5859 50.1173 30.4053 49.1256 33.3146 48.1939C35.0242 54.0845 37.2736 60.2155 40.063 66.4967C37.3036 72.748 35.0841 78.8489 33.4045 84.7094C30.4353 83.7777 27.6159 82.7559 25.0065 81.6439ZM41.1427 124.591C37.0637 122.247 35.2941 113.321 36.6738 101.84C37.0037 99.0151 37.5436 96.0397 38.2034 93.0043C44.082 94.4469 50.5005 95.5589 57.2489 96.2802C61.2979 101.84 65.4969 106.889 69.7259 111.307C59.9482 120.413 50.7704 125.402 44.5319 125.402C43.1822 125.372 42.0425 125.102 41.1427 124.591ZM112.286 101.69C113.695 113.17 111.956 122.097 107.907 124.471C107.007 125.012 105.837 125.252 104.458 125.252C98.2491 125.252 89.0413 120.293 79.2636 111.247C83.4626 106.829 87.6616 101.81 91.6507 96.2501C98.429 95.5288 104.847 94.4168 110.726 92.9442C111.416 95.9796 111.956 98.8949 112.286 101.69ZM123.833 81.6439C121.254 82.7559 118.434 83.7477 115.525 84.6794C113.815 78.7888 111.566 72.6578 108.777 66.3765C111.536 60.1253 113.755 54.0244 115.435 48.1638C118.404 49.0955 121.224 50.1173 123.863 51.2293C134.48 55.7675 141.349 61.7182 141.349 66.4366C141.319 71.1551 134.45 77.1358 123.833 81.6439Z" fill="#61DAFB"/>
    <path d="M74.4055 80.1749C81.9755 80.1749 88.1122 74.0257 88.1122 66.4402C88.1122 58.8548 81.9755 52.7056 74.4055 52.7056C66.8354 52.7056 60.6987 58.8548 60.6987 66.4402C60.6987 74.0257 66.8354 80.1749 74.4055 80.1749Z" fill="#61DAFB"/>
</svg>
