<svg width="110" height="110" viewBox="0 0 110 110" fill="none" xmlns="http://www.w3.org/2000/svg">
    <path fill-rule="evenodd" clip-rule="evenodd" d="M108.036 0.867432H45.6108C40.088 0.867432 35.6108 5.34458 35.6108 10.8674V27.0443C35.6108 32.5672 40.088 37.0443 45.6108 37.0443H71.86C72.4438 37.0443 72.9179 37.5183 72.9179 38.1022V64.3493C72.9179 69.8722 77.395 74.3493 82.9179 74.3493H99.0941C104.617 74.3493 109.094 69.8722 109.094 64.3493V1.92529C109.094 1.34113 108.621 0.867432 108.036 0.867432Z" fill="#4945FF"/>
    <path opacity="0.42" fill-rule="evenodd" clip-rule="evenodd" d="M18.549 17.9371C24.8487 11.6376 35.62 16.0993 35.62 25.0083V27.0424C35.62 32.5652 31.1429 37.0424 25.62 37.0424H0.720464C0.24918 37.0424 0.0131692 36.4726 0.346463 36.1392L18.549 17.9371Z" fill="#4945FF"/>
    <path opacity="0.42" fill-rule="evenodd" clip-rule="evenodd" d="M73.8298 109.619C73.497 109.953 72.9272 109.716 72.9272 109.245V84.3462C72.9272 78.8233 77.4044 74.3462 82.9272 74.3462H84.961C93.8701 74.3462 98.3317 85.1177 92.032 91.4173L73.8298 109.619Z" fill="#4945FF"/>
    <path opacity="0.42" d="M35.6284 47.0427C35.6284 41.5199 40.1056 37.0427 45.6284 37.0427H72.4065C72.6984 37.0427 72.9354 37.2797 72.9354 37.5717V64.3491C72.9354 69.8719 68.4583 74.3491 62.9354 74.3491H36.6863C36.1018 74.3491 35.6284 73.8751 35.6284 73.2906V47.0427Z" fill="#4945FF"/>
</svg>
