<svg width="159" height="108" viewBox="0 0 159 108" fill="none" xmlns="http://www.w3.org/2000/svg">
    <path d="M80.8608 19.4756V0.552246H0.757812V19.4756H29.3564V103.733H52.122V19.4756H80.8608ZM89.9374 101.508C93.6087 103.426 97.951 104.866 102.964 105.825C107.976 106.784 113.26 107.265 118.814 107.265C124.227 107.265 129.369 106.736 134.24 105.681C139.112 104.626 143.384 102.887 147.055 100.464C150.726 98.0415 153.632 94.8761 155.774 90.9662C157.916 87.0562 158.986 82.2233 158.986 76.4666C158.986 72.2931 158.374 68.636 157.151 65.4936C155.927 62.3513 154.162 59.5568 151.856 57.1102C149.55 54.6636 146.784 52.469 143.56 50.5264C140.335 48.5839 136.7 46.7487 132.652 45.0217C129.687 43.774 127.027 42.5627 124.674 41.3878C122.321 40.2128 120.32 39.013 118.673 37.7902C117.025 36.5664 115.755 35.2717 114.86 33.9041C113.966 32.5375 113.518 30.9899 113.518 29.2629C113.518 27.6798 113.919 26.2528 114.719 24.982C115.519 23.7104 116.649 22.6188 118.108 21.7075C119.567 20.7961 121.355 20.0888 123.474 19.5847C125.592 19.0816 127.945 18.8295 130.534 18.8295C132.416 18.8295 134.406 18.9733 136.5 19.2608C138.595 19.5492 140.701 19.993 142.818 20.592C144.937 21.1919 146.996 21.9471 148.997 22.8593C150.997 23.7707 152.845 24.8259 154.539 26.0248V4.51014C151.103 3.16659 147.349 2.1709 143.278 1.52397C139.206 0.876156 134.535 0.552246 129.263 0.552246C123.897 0.552246 118.814 1.13972 114.013 2.31555C109.212 3.4905 104.988 5.32567 101.34 7.82021C97.6921 10.3147 94.8094 13.4926 92.6911 17.3538C90.5728 21.2158 89.5141 25.8331 89.5141 31.2055C89.5141 38.0661 91.4558 43.9187 95.3392 48.7631C99.2218 53.6084 105.117 57.7101 113.025 61.0681C116.131 62.3637 119.026 63.6345 121.709 64.8822C124.391 66.129 126.71 67.4247 128.663 68.7673C130.617 70.1109 132.157 71.5734 133.287 73.1565C134.417 74.7397 134.982 76.5385 134.982 78.5538C134.982 80.0411 134.629 81.4202 133.923 82.691C133.217 83.9626 132.146 85.0657 130.711 86.001C129.275 86.9364 127.486 87.6685 125.344 88.1956C123.203 88.7236 120.697 88.9872 117.825 88.9872C112.931 88.9872 108.083 88.1122 103.282 86.3613C98.4808 84.6105 94.0329 81.9837 89.9374 78.4819V101.508Z" fill="#3178C6"/>
</svg>
