<svg width="44" height="30" viewBox="0 0 44 30" fill="none" xmlns="http://www.w3.org/2000/svg">
    <path d="M42.4882 4.6846C41.9968 2.84056 40.5492 1.38847 38.7107 0.895647C35.3787 1.90735e-06 22.0174 0 22.0174 0C22.0174 0 8.65626 1.90735e-06 5.32417 0.895647C3.48585 1.38847 2.03797 2.84056 1.54665 4.6846C0.653809 8.02677 0.653809 15 0.653809 15C0.653809 15 0.653809 21.9731 1.54665 25.3156C2.03797 27.1594 3.48585 28.6115 5.32417 29.1046C8.65626 30 22.0174 30 22.0174 30C22.0174 30 35.3787 30 38.7107 29.1046C40.5492 28.6115 41.9968 27.1594 42.4882 25.3156C43.3811 21.9731 43.3811 15 43.3811 15C43.3811 15 43.3811 8.02677 42.4882 4.6846Z" fill="#ED1D24"/>
    <path d="M17.6479 21.3311L28.8153 15.0003L17.6479 8.66885V21.3311Z" fill="white"/>
</svg>
